{
  "accessors": [
    {
      "bufferView": 2,
      "componentType": 5126,
      "count": 2922,
      "max": [
        4.929200172424316,
        5.124279975891113,
        1.608430027961731
      ],
      "min": [
        -4.1196699142456055,
        -6.240389823913574,
        -0.6429100036621094
      ],
      "type": "VEC3"
    },
    {
      "bufferView": 2,
      "byteOffset": 35064,
      "componentType": 5126,
      "count": 2922,
      "max": [
        0.999960720539093,
        0.9966146349906921,
        0.9988920092582703
      ],
      "min": [
        -0.9967464208602905,
        -0.9896402359008789,
        -0.9988920092582703
      ],
      "type": "VEC3"
    },
    {
      "bufferView": 1,
      "componentType": 5126,
      "count": 2922,
      "max": [
        0.9997900128364563,
        0.9857400059700012
      ],
      "min": [
        0.0002099999983329326,
        0.0627100020647049
      ],
      "type": "VEC2"
    },
    {
      "bufferView": 0,
      "componentType": 5125,
      "count": 4032,
      "type": "SCALAR"
    }
  ],
  "asset": {
    "extras": {
      "author": "EduardoAceves (https://sketchfab.com/EduardoAceves)",
      "license": "CC-BY-4.0 (http://creativecommons.org/licenses/by/4.0/)",
      "source": "https://sketchfab.com/3d-models/fox-f25a052be431440fad238bcf736122e5",
      "title": "Fox"
    },
    "generator": "Sketchfab-12.68.0",
    "version": "2.0"
  },
  "bufferViews": [
    {
      "buffer": 0,
      "byteLength": 16128,
      "name": "floatBufferViews",
      "target": 34963
    },
    {
      "buffer": 0,
      "byteLength": 23376,
      "byteOffset": 16128,
      "byteStride": 8,
      "name": "floatBufferViews",
      "target": 34962
    },
    {
      "buffer": 0,
      "byteLength": 70128,
      "byteOffset": 39504,
      "byteStride": 12,
      "name": "floatBufferViews",
      "target": 34962
    }
  ],
  "buffers": [
    {
      "byteLength": 109632,
      "uri": "scene.bin"
    }
  ],
  "images": [
    {
      "uri": "textures/Fox.material_baseColor.png"
    }
  ],
  "materials": [
    {
      "name": "Fox.material",
      "pbrMetallicRoughness": {
        "baseColorTexture": {
          "index": 0
        },
        "metallicFactor": 0.0,
        "roughnessFactor": 0.0
      }
    }
  ],
  "meshes": [
    {
      "name": "Plane_0",
      "primitives": [
        {
          "attributes": {
            "NORMAL": 1,
            "POSITION": 0,
            "TEXCOORD_0": 2
          },
          "indices": 3,
          "material": 0,
          "mode": 4
        }
      ]
    }
  ],
  "nodes": [
    {
      "children": [
        1
      ],
      "matrix": [
        1.0,
        0.0,
        0.0,
        0.0,
        0.0,
        2.220446049250313e-16,
        -1.0,
        0.0,
        0.0,
        1.0,
        2.220446049250313e-16,
        0.0,
        0.0,
        0.0,
        0.0,
        1.0
      ],
      "name": "Sketchfab_model"
    },
    {
      "children": [
        2
      ],
      "name": "Root"
    },
    {
      "children": [
        3
      ],
      "matrix": [
        0.0,
        0.0,
        -0.7496300000000001,
        0.0,
        -0.0,
        0.7496300000000001,
        -0.0,
        0.0,
        0.7496300000000001,
        0.0,
        0.0,
        0.0,
        -0.36730000000000007,
        1.17263,
        -0.020320000000000005,
        1.0
      ],
      "name": "Plane"
    },
    {
      "mesh": 0,
      "name": "Plane_0"
    }
  ],
  "samplers": [
    {
      "magFilter": 9729,
      "minFilter": 9987,
      "wrapS": 10497,
      "wrapT": 10497
    }
  ],
  "scene": 0,
  "scenes": [
    {
      "name": "Sketchfab_Scene",
      "nodes": [
        0
      ]
    }
  ],
  "textures": [
    {
      "sampler": 0,
      "source": 0
    }
  ]
}
